<mxfile host="Electron" modified="2024-10-20T17:09:08.583Z" agent="Mozilla/5.0 (Windows NT 10.0; Win64; x64) AppleWebKit/537.36 (KHTML, like Gecko) draw.io/24.1.0 Chrome/120.0.6099.109 Electron/28.1.0 Safari/537.36" etag="eLk5u92EtgknTRtUQ0X4" version="24.1.0" type="device">
  <diagram name="Страница — 1" id="57WQUnVr91JUQK5gjwGB">
    <mxGraphModel dx="2981" dy="1136" grid="1" gridSize="10" guides="1" tooltips="1" connect="1" arrows="1" fold="1" page="1" pageScale="1" pageWidth="1169" pageHeight="827" math="0" shadow="0">
      <root>
        <mxCell id="0" />
        <mxCell id="1" parent="0" />
        <mxCell id="PRWoRMSQXp6HKNYfSj08-133" value="" style="whiteSpace=wrap;html=1;fillColor=#dae8fc;strokeColor=#6c8ebf;" vertex="1" parent="1">
          <mxGeometry width="1170" height="490" as="geometry" />
        </mxCell>
        <mxCell id="PRWoRMSQXp6HKNYfSj08-134" value="" style="whiteSpace=wrap;html=1;fillColor=#d5e8d4;strokeColor=#82b366;" vertex="1" parent="1">
          <mxGeometry x="-1" y="490" width="1170" height="490" as="geometry" />
        </mxCell>
        <mxCell id="PRWoRMSQXp6HKNYfSj08-1" value="equipment_types" style="shape=table;startSize=30;container=1;collapsible=1;childLayout=tableLayout;fixedRows=1;rowLines=0;fontStyle=1;align=center;resizeLast=1;html=1;" vertex="1" parent="1">
          <mxGeometry x="670" y="70" width="180" height="210" as="geometry" />
        </mxCell>
        <mxCell id="PRWoRMSQXp6HKNYfSj08-2" value="" style="shape=tableRow;horizontal=0;startSize=0;swimlaneHead=0;swimlaneBody=0;fillColor=none;collapsible=0;dropTarget=0;points=[[0,0.5],[1,0.5]];portConstraint=eastwest;top=0;left=0;right=0;bottom=1;" vertex="1" parent="PRWoRMSQXp6HKNYfSj08-1">
          <mxGeometry y="30" width="180" height="30" as="geometry" />
        </mxCell>
        <mxCell id="PRWoRMSQXp6HKNYfSj08-3" value="PK" style="shape=partialRectangle;connectable=0;fillColor=#f5f5f5;top=0;left=0;bottom=0;right=0;fontStyle=1;overflow=hidden;whiteSpace=wrap;html=1;fontColor=#333333;strokeColor=#666666;" vertex="1" parent="PRWoRMSQXp6HKNYfSj08-2">
          <mxGeometry width="30" height="30" as="geometry">
            <mxRectangle width="30" height="30" as="alternateBounds" />
          </mxGeometry>
        </mxCell>
        <mxCell id="PRWoRMSQXp6HKNYfSj08-4" value="id" style="shape=partialRectangle;connectable=0;fillColor=#f5f5f5;top=0;left=0;bottom=0;right=0;align=left;spacingLeft=6;fontStyle=5;overflow=hidden;whiteSpace=wrap;html=1;fontColor=#333333;strokeColor=#666666;" vertex="1" parent="PRWoRMSQXp6HKNYfSj08-2">
          <mxGeometry x="30" width="150" height="30" as="geometry">
            <mxRectangle width="150" height="30" as="alternateBounds" />
          </mxGeometry>
        </mxCell>
        <mxCell id="PRWoRMSQXp6HKNYfSj08-5" value="" style="shape=tableRow;horizontal=0;startSize=0;swimlaneHead=0;swimlaneBody=0;fillColor=none;collapsible=0;dropTarget=0;points=[[0,0.5],[1,0.5]];portConstraint=eastwest;top=0;left=0;right=0;bottom=0;" vertex="1" parent="PRWoRMSQXp6HKNYfSj08-1">
          <mxGeometry y="60" width="180" height="30" as="geometry" />
        </mxCell>
        <mxCell id="PRWoRMSQXp6HKNYfSj08-6" value="" style="shape=partialRectangle;connectable=0;fillColor=#f5f5f5;top=0;left=0;bottom=0;right=0;editable=1;overflow=hidden;whiteSpace=wrap;html=1;fontColor=#333333;strokeColor=#666666;" vertex="1" parent="PRWoRMSQXp6HKNYfSj08-5">
          <mxGeometry width="30" height="30" as="geometry">
            <mxRectangle width="30" height="30" as="alternateBounds" />
          </mxGeometry>
        </mxCell>
        <mxCell id="PRWoRMSQXp6HKNYfSj08-7" value="equipment_type_name" style="shape=partialRectangle;connectable=0;fillColor=#f5f5f5;top=0;left=0;bottom=0;right=0;align=left;spacingLeft=6;overflow=hidden;whiteSpace=wrap;html=1;fontColor=#333333;strokeColor=#666666;" vertex="1" parent="PRWoRMSQXp6HKNYfSj08-5">
          <mxGeometry x="30" width="150" height="30" as="geometry">
            <mxRectangle width="150" height="30" as="alternateBounds" />
          </mxGeometry>
        </mxCell>
        <mxCell id="PRWoRMSQXp6HKNYfSj08-8" value="" style="shape=tableRow;horizontal=0;startSize=0;swimlaneHead=0;swimlaneBody=0;fillColor=none;collapsible=0;dropTarget=0;points=[[0,0.5],[1,0.5]];portConstraint=eastwest;top=0;left=0;right=0;bottom=0;" vertex="1" parent="PRWoRMSQXp6HKNYfSj08-1">
          <mxGeometry y="90" width="180" height="30" as="geometry" />
        </mxCell>
        <mxCell id="PRWoRMSQXp6HKNYfSj08-9" value="" style="shape=partialRectangle;connectable=0;fillColor=#f5f5f5;top=0;left=0;bottom=0;right=0;editable=1;overflow=hidden;whiteSpace=wrap;html=1;fontColor=#333333;strokeColor=#666666;" vertex="1" parent="PRWoRMSQXp6HKNYfSj08-8">
          <mxGeometry width="30" height="30" as="geometry">
            <mxRectangle width="30" height="30" as="alternateBounds" />
          </mxGeometry>
        </mxCell>
        <mxCell id="PRWoRMSQXp6HKNYfSj08-10" value="serial_number_mask" style="shape=partialRectangle;connectable=0;fillColor=#f5f5f5;top=0;left=0;bottom=0;right=0;align=left;spacingLeft=6;overflow=hidden;whiteSpace=wrap;html=1;fontColor=#333333;strokeColor=#666666;" vertex="1" parent="PRWoRMSQXp6HKNYfSj08-8">
          <mxGeometry x="30" width="150" height="30" as="geometry">
            <mxRectangle width="150" height="30" as="alternateBounds" />
          </mxGeometry>
        </mxCell>
        <mxCell id="PRWoRMSQXp6HKNYfSj08-88" style="shape=tableRow;horizontal=0;startSize=0;swimlaneHead=0;swimlaneBody=0;fillColor=none;collapsible=0;dropTarget=0;points=[[0,0.5],[1,0.5]];portConstraint=eastwest;top=0;left=0;right=0;bottom=0;" vertex="1" parent="PRWoRMSQXp6HKNYfSj08-1">
          <mxGeometry y="120" width="180" height="30" as="geometry" />
        </mxCell>
        <mxCell id="PRWoRMSQXp6HKNYfSj08-89" style="shape=partialRectangle;connectable=0;fillColor=#f5f5f5;top=0;left=0;bottom=0;right=0;editable=1;overflow=hidden;whiteSpace=wrap;html=1;fontColor=#333333;strokeColor=#666666;" vertex="1" parent="PRWoRMSQXp6HKNYfSj08-88">
          <mxGeometry width="30" height="30" as="geometry">
            <mxRectangle width="30" height="30" as="alternateBounds" />
          </mxGeometry>
        </mxCell>
        <mxCell id="PRWoRMSQXp6HKNYfSj08-90" value="user_id" style="shape=partialRectangle;connectable=0;fillColor=#f5f5f5;top=0;left=0;bottom=0;right=0;align=left;spacingLeft=6;overflow=hidden;whiteSpace=wrap;html=1;fontColor=#333333;strokeColor=#666666;" vertex="1" parent="PRWoRMSQXp6HKNYfSj08-88">
          <mxGeometry x="30" width="150" height="30" as="geometry">
            <mxRectangle width="150" height="30" as="alternateBounds" />
          </mxGeometry>
        </mxCell>
        <mxCell id="PRWoRMSQXp6HKNYfSj08-11" value="" style="shape=tableRow;horizontal=0;startSize=0;swimlaneHead=0;swimlaneBody=0;fillColor=none;collapsible=0;dropTarget=0;points=[[0,0.5],[1,0.5]];portConstraint=eastwest;top=0;left=0;right=0;bottom=0;" vertex="1" parent="PRWoRMSQXp6HKNYfSj08-1">
          <mxGeometry y="150" width="180" height="30" as="geometry" />
        </mxCell>
        <mxCell id="PRWoRMSQXp6HKNYfSj08-12" value="" style="shape=partialRectangle;connectable=0;fillColor=#f5f5f5;top=0;left=0;bottom=0;right=0;editable=1;overflow=hidden;whiteSpace=wrap;html=1;fontColor=#333333;strokeColor=#666666;" vertex="1" parent="PRWoRMSQXp6HKNYfSj08-11">
          <mxGeometry width="30" height="30" as="geometry">
            <mxRectangle width="30" height="30" as="alternateBounds" />
          </mxGeometry>
        </mxCell>
        <mxCell id="PRWoRMSQXp6HKNYfSj08-13" value="created_at" style="shape=partialRectangle;connectable=0;fillColor=#f5f5f5;top=0;left=0;bottom=0;right=0;align=left;spacingLeft=6;overflow=hidden;whiteSpace=wrap;html=1;fontColor=#333333;strokeColor=#666666;" vertex="1" parent="PRWoRMSQXp6HKNYfSj08-11">
          <mxGeometry x="30" width="150" height="30" as="geometry">
            <mxRectangle width="150" height="30" as="alternateBounds" />
          </mxGeometry>
        </mxCell>
        <mxCell id="PRWoRMSQXp6HKNYfSj08-33" style="shape=tableRow;horizontal=0;startSize=0;swimlaneHead=0;swimlaneBody=0;fillColor=none;collapsible=0;dropTarget=0;points=[[0,0.5],[1,0.5]];portConstraint=eastwest;top=0;left=0;right=0;bottom=0;" vertex="1" parent="PRWoRMSQXp6HKNYfSj08-1">
          <mxGeometry y="180" width="180" height="30" as="geometry" />
        </mxCell>
        <mxCell id="PRWoRMSQXp6HKNYfSj08-34" style="shape=partialRectangle;connectable=0;fillColor=#f5f5f5;top=0;left=0;bottom=0;right=0;editable=1;overflow=hidden;whiteSpace=wrap;html=1;fontColor=#333333;strokeColor=#666666;" vertex="1" parent="PRWoRMSQXp6HKNYfSj08-33">
          <mxGeometry width="30" height="30" as="geometry">
            <mxRectangle width="30" height="30" as="alternateBounds" />
          </mxGeometry>
        </mxCell>
        <mxCell id="PRWoRMSQXp6HKNYfSj08-35" value="updated_at" style="shape=partialRectangle;connectable=0;fillColor=#f5f5f5;top=0;left=0;bottom=0;right=0;align=left;spacingLeft=6;overflow=hidden;whiteSpace=wrap;html=1;fontColor=#333333;strokeColor=#666666;" vertex="1" parent="PRWoRMSQXp6HKNYfSj08-33">
          <mxGeometry x="30" width="150" height="30" as="geometry">
            <mxRectangle width="150" height="30" as="alternateBounds" />
          </mxGeometry>
        </mxCell>
        <mxCell id="PRWoRMSQXp6HKNYfSj08-14" value="equipments" style="shape=table;startSize=30;container=1;collapsible=1;childLayout=tableLayout;fixedRows=1;rowLines=0;fontStyle=1;align=center;resizeLast=1;html=1;" vertex="1" parent="1">
          <mxGeometry x="920" y="40" width="180" height="240" as="geometry" />
        </mxCell>
        <mxCell id="PRWoRMSQXp6HKNYfSj08-15" value="" style="shape=tableRow;horizontal=0;startSize=0;swimlaneHead=0;swimlaneBody=0;fillColor=none;collapsible=0;dropTarget=0;points=[[0,0.5],[1,0.5]];portConstraint=eastwest;top=0;left=0;right=0;bottom=1;" vertex="1" parent="PRWoRMSQXp6HKNYfSj08-14">
          <mxGeometry y="30" width="180" height="30" as="geometry" />
        </mxCell>
        <mxCell id="PRWoRMSQXp6HKNYfSj08-16" value="PK" style="shape=partialRectangle;connectable=0;fillColor=#f5f5f5;top=0;left=0;bottom=0;right=0;fontStyle=1;overflow=hidden;whiteSpace=wrap;html=1;fontColor=#333333;strokeColor=#666666;" vertex="1" parent="PRWoRMSQXp6HKNYfSj08-15">
          <mxGeometry width="30" height="30" as="geometry">
            <mxRectangle width="30" height="30" as="alternateBounds" />
          </mxGeometry>
        </mxCell>
        <mxCell id="PRWoRMSQXp6HKNYfSj08-17" value="id" style="shape=partialRectangle;connectable=0;fillColor=#f5f5f5;top=0;left=0;bottom=0;right=0;align=left;spacingLeft=6;fontStyle=5;overflow=hidden;whiteSpace=wrap;html=1;fontColor=#333333;strokeColor=#666666;" vertex="1" parent="PRWoRMSQXp6HKNYfSj08-15">
          <mxGeometry x="30" width="150" height="30" as="geometry">
            <mxRectangle width="150" height="30" as="alternateBounds" />
          </mxGeometry>
        </mxCell>
        <mxCell id="PRWoRMSQXp6HKNYfSj08-21" value="" style="shape=tableRow;horizontal=0;startSize=0;swimlaneHead=0;swimlaneBody=0;fillColor=none;collapsible=0;dropTarget=0;points=[[0,0.5],[1,0.5]];portConstraint=eastwest;top=0;left=0;right=0;bottom=0;" vertex="1" parent="PRWoRMSQXp6HKNYfSj08-14">
          <mxGeometry y="60" width="180" height="30" as="geometry" />
        </mxCell>
        <mxCell id="PRWoRMSQXp6HKNYfSj08-22" value="" style="shape=partialRectangle;connectable=0;fillColor=#f5f5f5;top=0;left=0;bottom=0;right=0;editable=1;overflow=hidden;whiteSpace=wrap;html=1;fontColor=#333333;strokeColor=#666666;" vertex="1" parent="PRWoRMSQXp6HKNYfSj08-21">
          <mxGeometry width="30" height="30" as="geometry">
            <mxRectangle width="30" height="30" as="alternateBounds" />
          </mxGeometry>
        </mxCell>
        <mxCell id="PRWoRMSQXp6HKNYfSj08-23" value="serial_number" style="shape=partialRectangle;connectable=0;fillColor=#f5f5f5;top=0;left=0;bottom=0;right=0;align=left;spacingLeft=6;overflow=hidden;whiteSpace=wrap;html=1;fontColor=#333333;strokeColor=#666666;" vertex="1" parent="PRWoRMSQXp6HKNYfSj08-21">
          <mxGeometry x="30" width="150" height="30" as="geometry">
            <mxRectangle width="150" height="30" as="alternateBounds" />
          </mxGeometry>
        </mxCell>
        <mxCell id="PRWoRMSQXp6HKNYfSj08-24" value="" style="shape=tableRow;horizontal=0;startSize=0;swimlaneHead=0;swimlaneBody=0;fillColor=none;collapsible=0;dropTarget=0;points=[[0,0.5],[1,0.5]];portConstraint=eastwest;top=0;left=0;right=0;bottom=0;" vertex="1" parent="PRWoRMSQXp6HKNYfSj08-14">
          <mxGeometry y="90" width="180" height="30" as="geometry" />
        </mxCell>
        <mxCell id="PRWoRMSQXp6HKNYfSj08-25" value="" style="shape=partialRectangle;connectable=0;fillColor=#f5f5f5;top=0;left=0;bottom=0;right=0;editable=1;overflow=hidden;whiteSpace=wrap;html=1;fontColor=#333333;strokeColor=#666666;" vertex="1" parent="PRWoRMSQXp6HKNYfSj08-24">
          <mxGeometry width="30" height="30" as="geometry">
            <mxRectangle width="30" height="30" as="alternateBounds" />
          </mxGeometry>
        </mxCell>
        <mxCell id="PRWoRMSQXp6HKNYfSj08-26" value="description" style="shape=partialRectangle;connectable=0;fillColor=#f5f5f5;top=0;left=0;bottom=0;right=0;align=left;spacingLeft=6;overflow=hidden;whiteSpace=wrap;html=1;fontColor=#333333;strokeColor=#666666;" vertex="1" parent="PRWoRMSQXp6HKNYfSj08-24">
          <mxGeometry x="30" width="150" height="30" as="geometry">
            <mxRectangle width="150" height="30" as="alternateBounds" />
          </mxGeometry>
        </mxCell>
        <mxCell id="PRWoRMSQXp6HKNYfSj08-91" style="shape=tableRow;horizontal=0;startSize=0;swimlaneHead=0;swimlaneBody=0;fillColor=none;collapsible=0;dropTarget=0;points=[[0,0.5],[1,0.5]];portConstraint=eastwest;top=0;left=0;right=0;bottom=0;" vertex="1" parent="PRWoRMSQXp6HKNYfSj08-14">
          <mxGeometry y="120" width="180" height="30" as="geometry" />
        </mxCell>
        <mxCell id="PRWoRMSQXp6HKNYfSj08-92" style="shape=partialRectangle;connectable=0;fillColor=#f5f5f5;top=0;left=0;bottom=0;right=0;editable=1;overflow=hidden;whiteSpace=wrap;html=1;fontColor=#333333;strokeColor=#666666;" vertex="1" parent="PRWoRMSQXp6HKNYfSj08-91">
          <mxGeometry width="30" height="30" as="geometry">
            <mxRectangle width="30" height="30" as="alternateBounds" />
          </mxGeometry>
        </mxCell>
        <mxCell id="PRWoRMSQXp6HKNYfSj08-93" value="user_id" style="shape=partialRectangle;connectable=0;fillColor=#f5f5f5;top=0;left=0;bottom=0;right=0;align=left;spacingLeft=6;overflow=hidden;whiteSpace=wrap;html=1;fontColor=#333333;strokeColor=#666666;" vertex="1" parent="PRWoRMSQXp6HKNYfSj08-91">
          <mxGeometry x="30" width="150" height="30" as="geometry">
            <mxRectangle width="150" height="30" as="alternateBounds" />
          </mxGeometry>
        </mxCell>
        <mxCell id="PRWoRMSQXp6HKNYfSj08-99" style="shape=tableRow;horizontal=0;startSize=0;swimlaneHead=0;swimlaneBody=0;fillColor=#f5f5f5;collapsible=0;dropTarget=0;points=[[0,0.5],[1,0.5]];portConstraint=eastwest;top=0;left=0;right=0;bottom=0;fontColor=#333333;strokeColor=#666666;" vertex="1" parent="PRWoRMSQXp6HKNYfSj08-14">
          <mxGeometry y="150" width="180" height="30" as="geometry" />
        </mxCell>
        <mxCell id="PRWoRMSQXp6HKNYfSj08-100" style="shape=partialRectangle;connectable=0;fillColor=#f5f5f5;top=0;left=0;bottom=0;right=0;editable=1;overflow=hidden;whiteSpace=wrap;html=1;fontColor=#333333;strokeColor=#666666;" vertex="1" parent="PRWoRMSQXp6HKNYfSj08-99">
          <mxGeometry width="30" height="30" as="geometry">
            <mxRectangle width="30" height="30" as="alternateBounds" />
          </mxGeometry>
        </mxCell>
        <mxCell id="PRWoRMSQXp6HKNYfSj08-101" value="equipment_type_id" style="shape=partialRectangle;connectable=0;fillColor=none;top=0;left=0;bottom=0;right=0;align=left;spacingLeft=6;overflow=hidden;whiteSpace=wrap;html=1;" vertex="1" parent="PRWoRMSQXp6HKNYfSj08-99">
          <mxGeometry x="30" width="150" height="30" as="geometry">
            <mxRectangle width="150" height="30" as="alternateBounds" />
          </mxGeometry>
        </mxCell>
        <mxCell id="PRWoRMSQXp6HKNYfSj08-30" style="shape=tableRow;horizontal=0;startSize=0;swimlaneHead=0;swimlaneBody=0;fillColor=none;collapsible=0;dropTarget=0;points=[[0,0.5],[1,0.5]];portConstraint=eastwest;top=0;left=0;right=0;bottom=0;" vertex="1" parent="PRWoRMSQXp6HKNYfSj08-14">
          <mxGeometry y="180" width="180" height="30" as="geometry" />
        </mxCell>
        <mxCell id="PRWoRMSQXp6HKNYfSj08-31" style="shape=partialRectangle;connectable=0;fillColor=#f5f5f5;top=0;left=0;bottom=0;right=0;editable=1;overflow=hidden;whiteSpace=wrap;html=1;fontColor=#333333;strokeColor=#666666;" vertex="1" parent="PRWoRMSQXp6HKNYfSj08-30">
          <mxGeometry width="30" height="30" as="geometry">
            <mxRectangle width="30" height="30" as="alternateBounds" />
          </mxGeometry>
        </mxCell>
        <mxCell id="PRWoRMSQXp6HKNYfSj08-32" value="created_at" style="shape=partialRectangle;connectable=0;fillColor=#f5f5f5;top=0;left=0;bottom=0;right=0;align=left;spacingLeft=6;overflow=hidden;whiteSpace=wrap;html=1;fontColor=#333333;strokeColor=#666666;" vertex="1" parent="PRWoRMSQXp6HKNYfSj08-30">
          <mxGeometry x="30" width="150" height="30" as="geometry">
            <mxRectangle width="150" height="30" as="alternateBounds" />
          </mxGeometry>
        </mxCell>
        <mxCell id="PRWoRMSQXp6HKNYfSj08-27" style="shape=tableRow;horizontal=0;startSize=0;swimlaneHead=0;swimlaneBody=0;fillColor=none;collapsible=0;dropTarget=0;points=[[0,0.5],[1,0.5]];portConstraint=eastwest;top=0;left=0;right=0;bottom=0;" vertex="1" parent="PRWoRMSQXp6HKNYfSj08-14">
          <mxGeometry y="210" width="180" height="30" as="geometry" />
        </mxCell>
        <mxCell id="PRWoRMSQXp6HKNYfSj08-28" style="shape=partialRectangle;connectable=0;fillColor=#f5f5f5;top=0;left=0;bottom=0;right=0;editable=1;overflow=hidden;whiteSpace=wrap;html=1;fontColor=#333333;strokeColor=#666666;" vertex="1" parent="PRWoRMSQXp6HKNYfSj08-27">
          <mxGeometry width="30" height="30" as="geometry">
            <mxRectangle width="30" height="30" as="alternateBounds" />
          </mxGeometry>
        </mxCell>
        <mxCell id="PRWoRMSQXp6HKNYfSj08-29" value="updated_at" style="shape=partialRectangle;connectable=0;fillColor=#f5f5f5;top=0;left=0;bottom=0;right=0;align=left;spacingLeft=6;overflow=hidden;whiteSpace=wrap;html=1;fontColor=#333333;strokeColor=#666666;" vertex="1" parent="PRWoRMSQXp6HKNYfSj08-27">
          <mxGeometry x="30" width="150" height="30" as="geometry">
            <mxRectangle width="150" height="30" as="alternateBounds" />
          </mxGeometry>
        </mxCell>
        <mxCell id="PRWoRMSQXp6HKNYfSj08-36" value="users" style="shape=table;startSize=30;container=1;collapsible=1;childLayout=tableLayout;fixedRows=1;rowLines=0;fontStyle=1;align=center;resizeLast=1;html=1;" vertex="1" parent="1">
          <mxGeometry x="440" y="270" width="180" height="180" as="geometry" />
        </mxCell>
        <mxCell id="PRWoRMSQXp6HKNYfSj08-37" value="" style="shape=tableRow;horizontal=0;startSize=0;swimlaneHead=0;swimlaneBody=0;fillColor=none;collapsible=0;dropTarget=0;points=[[0,0.5],[1,0.5]];portConstraint=eastwest;top=0;left=0;right=0;bottom=1;" vertex="1" parent="PRWoRMSQXp6HKNYfSj08-36">
          <mxGeometry y="30" width="180" height="30" as="geometry" />
        </mxCell>
        <mxCell id="PRWoRMSQXp6HKNYfSj08-38" value="PK" style="shape=partialRectangle;connectable=0;top=0;left=0;bottom=0;right=0;fontStyle=1;overflow=hidden;whiteSpace=wrap;html=1;fillColor=#f5f5f5;fontColor=#333333;strokeColor=#666666;" vertex="1" parent="PRWoRMSQXp6HKNYfSj08-37">
          <mxGeometry width="30" height="30" as="geometry">
            <mxRectangle width="30" height="30" as="alternateBounds" />
          </mxGeometry>
        </mxCell>
        <mxCell id="PRWoRMSQXp6HKNYfSj08-39" value="id" style="shape=partialRectangle;connectable=0;top=0;left=0;bottom=0;right=0;align=left;spacingLeft=6;fontStyle=5;overflow=hidden;whiteSpace=wrap;html=1;fillColor=#f5f5f5;fontColor=#333333;strokeColor=#666666;" vertex="1" parent="PRWoRMSQXp6HKNYfSj08-37">
          <mxGeometry x="30" width="150" height="30" as="geometry">
            <mxRectangle width="150" height="30" as="alternateBounds" />
          </mxGeometry>
        </mxCell>
        <mxCell id="PRWoRMSQXp6HKNYfSj08-40" value="" style="shape=tableRow;horizontal=0;startSize=0;swimlaneHead=0;swimlaneBody=0;fillColor=none;collapsible=0;dropTarget=0;points=[[0,0.5],[1,0.5]];portConstraint=eastwest;top=0;left=0;right=0;bottom=0;" vertex="1" parent="PRWoRMSQXp6HKNYfSj08-36">
          <mxGeometry y="60" width="180" height="30" as="geometry" />
        </mxCell>
        <mxCell id="PRWoRMSQXp6HKNYfSj08-41" value="" style="shape=partialRectangle;connectable=0;top=0;left=0;bottom=0;right=0;editable=1;overflow=hidden;whiteSpace=wrap;html=1;fillColor=#f5f5f5;fontColor=#333333;strokeColor=#666666;" vertex="1" parent="PRWoRMSQXp6HKNYfSj08-40">
          <mxGeometry width="30" height="30" as="geometry">
            <mxRectangle width="30" height="30" as="alternateBounds" />
          </mxGeometry>
        </mxCell>
        <mxCell id="PRWoRMSQXp6HKNYfSj08-42" value="email" style="shape=partialRectangle;connectable=0;top=0;left=0;bottom=0;right=0;align=left;spacingLeft=6;overflow=hidden;whiteSpace=wrap;html=1;fillColor=#f5f5f5;fontColor=#333333;strokeColor=#666666;" vertex="1" parent="PRWoRMSQXp6HKNYfSj08-40">
          <mxGeometry x="30" width="150" height="30" as="geometry">
            <mxRectangle width="150" height="30" as="alternateBounds" />
          </mxGeometry>
        </mxCell>
        <mxCell id="PRWoRMSQXp6HKNYfSj08-43" value="" style="shape=tableRow;horizontal=0;startSize=0;swimlaneHead=0;swimlaneBody=0;fillColor=none;collapsible=0;dropTarget=0;points=[[0,0.5],[1,0.5]];portConstraint=eastwest;top=0;left=0;right=0;bottom=0;" vertex="1" parent="PRWoRMSQXp6HKNYfSj08-36">
          <mxGeometry y="90" width="180" height="30" as="geometry" />
        </mxCell>
        <mxCell id="PRWoRMSQXp6HKNYfSj08-44" value="" style="shape=partialRectangle;connectable=0;top=0;left=0;bottom=0;right=0;editable=1;overflow=hidden;whiteSpace=wrap;html=1;fillColor=#f5f5f5;fontColor=#333333;strokeColor=#666666;" vertex="1" parent="PRWoRMSQXp6HKNYfSj08-43">
          <mxGeometry width="30" height="30" as="geometry">
            <mxRectangle width="30" height="30" as="alternateBounds" />
          </mxGeometry>
        </mxCell>
        <mxCell id="PRWoRMSQXp6HKNYfSj08-45" value="password" style="shape=partialRectangle;connectable=0;top=0;left=0;bottom=0;right=0;align=left;spacingLeft=6;overflow=hidden;whiteSpace=wrap;html=1;fillColor=#f5f5f5;fontColor=#333333;strokeColor=#666666;" vertex="1" parent="PRWoRMSQXp6HKNYfSj08-43">
          <mxGeometry x="30" width="150" height="30" as="geometry">
            <mxRectangle width="150" height="30" as="alternateBounds" />
          </mxGeometry>
        </mxCell>
        <mxCell id="PRWoRMSQXp6HKNYfSj08-46" value="" style="shape=tableRow;horizontal=0;startSize=0;swimlaneHead=0;swimlaneBody=0;fillColor=none;collapsible=0;dropTarget=0;points=[[0,0.5],[1,0.5]];portConstraint=eastwest;top=0;left=0;right=0;bottom=0;" vertex="1" parent="PRWoRMSQXp6HKNYfSj08-36">
          <mxGeometry y="120" width="180" height="30" as="geometry" />
        </mxCell>
        <mxCell id="PRWoRMSQXp6HKNYfSj08-47" value="" style="shape=partialRectangle;connectable=0;top=0;left=0;bottom=0;right=0;editable=1;overflow=hidden;whiteSpace=wrap;html=1;fillColor=#f5f5f5;fontColor=#333333;strokeColor=#666666;" vertex="1" parent="PRWoRMSQXp6HKNYfSj08-46">
          <mxGeometry width="30" height="30" as="geometry">
            <mxRectangle width="30" height="30" as="alternateBounds" />
          </mxGeometry>
        </mxCell>
        <mxCell id="PRWoRMSQXp6HKNYfSj08-48" value="created_at" style="shape=partialRectangle;connectable=0;top=0;left=0;bottom=0;right=0;align=left;spacingLeft=6;overflow=hidden;whiteSpace=wrap;html=1;fillColor=#f5f5f5;fontColor=#333333;strokeColor=#666666;" vertex="1" parent="PRWoRMSQXp6HKNYfSj08-46">
          <mxGeometry x="30" width="150" height="30" as="geometry">
            <mxRectangle width="150" height="30" as="alternateBounds" />
          </mxGeometry>
        </mxCell>
        <mxCell id="PRWoRMSQXp6HKNYfSj08-49" style="shape=tableRow;horizontal=0;startSize=0;swimlaneHead=0;swimlaneBody=0;fillColor=none;collapsible=0;dropTarget=0;points=[[0,0.5],[1,0.5]];portConstraint=eastwest;top=0;left=0;right=0;bottom=0;" vertex="1" parent="PRWoRMSQXp6HKNYfSj08-36">
          <mxGeometry y="150" width="180" height="30" as="geometry" />
        </mxCell>
        <mxCell id="PRWoRMSQXp6HKNYfSj08-50" style="shape=partialRectangle;connectable=0;top=0;left=0;bottom=0;right=0;editable=1;overflow=hidden;whiteSpace=wrap;html=1;fillColor=#f5f5f5;fontColor=#333333;strokeColor=#666666;" vertex="1" parent="PRWoRMSQXp6HKNYfSj08-49">
          <mxGeometry width="30" height="30" as="geometry">
            <mxRectangle width="30" height="30" as="alternateBounds" />
          </mxGeometry>
        </mxCell>
        <mxCell id="PRWoRMSQXp6HKNYfSj08-51" value="updated_at" style="shape=partialRectangle;connectable=0;top=0;left=0;bottom=0;right=0;align=left;spacingLeft=6;overflow=hidden;whiteSpace=wrap;html=1;fillColor=#f5f5f5;fontColor=#333333;strokeColor=#666666;" vertex="1" parent="PRWoRMSQXp6HKNYfSj08-49">
          <mxGeometry x="30" width="150" height="30" as="geometry">
            <mxRectangle width="150" height="30" as="alternateBounds" />
          </mxGeometry>
        </mxCell>
        <mxCell id="PRWoRMSQXp6HKNYfSj08-52" value="personal_access_tokens" style="shape=table;startSize=30;container=1;collapsible=1;childLayout=tableLayout;fixedRows=1;rowLines=0;fontStyle=1;align=center;resizeLast=1;html=1;" vertex="1" parent="1">
          <mxGeometry x="200" y="70" width="180" height="330" as="geometry" />
        </mxCell>
        <mxCell id="PRWoRMSQXp6HKNYfSj08-53" value="" style="shape=tableRow;horizontal=0;startSize=0;swimlaneHead=0;swimlaneBody=0;fillColor=none;collapsible=0;dropTarget=0;points=[[0,0.5],[1,0.5]];portConstraint=eastwest;top=0;left=0;right=0;bottom=1;" vertex="1" parent="PRWoRMSQXp6HKNYfSj08-52">
          <mxGeometry y="30" width="180" height="30" as="geometry" />
        </mxCell>
        <mxCell id="PRWoRMSQXp6HKNYfSj08-54" value="PK" style="shape=partialRectangle;connectable=0;fillColor=#f5f5f5;top=0;left=0;bottom=0;right=0;fontStyle=1;overflow=hidden;whiteSpace=wrap;html=1;fontColor=#333333;strokeColor=#666666;" vertex="1" parent="PRWoRMSQXp6HKNYfSj08-53">
          <mxGeometry width="30" height="30" as="geometry">
            <mxRectangle width="30" height="30" as="alternateBounds" />
          </mxGeometry>
        </mxCell>
        <mxCell id="PRWoRMSQXp6HKNYfSj08-55" value="id" style="shape=partialRectangle;connectable=0;fillColor=#f5f5f5;top=0;left=0;bottom=0;right=0;align=left;spacingLeft=6;fontStyle=5;overflow=hidden;whiteSpace=wrap;html=1;fontColor=#333333;strokeColor=#666666;" vertex="1" parent="PRWoRMSQXp6HKNYfSj08-53">
          <mxGeometry x="30" width="150" height="30" as="geometry">
            <mxRectangle width="150" height="30" as="alternateBounds" />
          </mxGeometry>
        </mxCell>
        <mxCell id="PRWoRMSQXp6HKNYfSj08-56" value="" style="shape=tableRow;horizontal=0;startSize=0;swimlaneHead=0;swimlaneBody=0;fillColor=none;collapsible=0;dropTarget=0;points=[[0,0.5],[1,0.5]];portConstraint=eastwest;top=0;left=0;right=0;bottom=0;" vertex="1" parent="PRWoRMSQXp6HKNYfSj08-52">
          <mxGeometry y="60" width="180" height="30" as="geometry" />
        </mxCell>
        <mxCell id="PRWoRMSQXp6HKNYfSj08-57" value="" style="shape=partialRectangle;connectable=0;fillColor=#f5f5f5;top=0;left=0;bottom=0;right=0;editable=1;overflow=hidden;whiteSpace=wrap;html=1;fontColor=#333333;strokeColor=#666666;" vertex="1" parent="PRWoRMSQXp6HKNYfSj08-56">
          <mxGeometry width="30" height="30" as="geometry">
            <mxRectangle width="30" height="30" as="alternateBounds" />
          </mxGeometry>
        </mxCell>
        <mxCell id="PRWoRMSQXp6HKNYfSj08-58" value="tokenable_type" style="shape=partialRectangle;connectable=0;fillColor=#f5f5f5;top=0;left=0;bottom=0;right=0;align=left;spacingLeft=6;overflow=hidden;whiteSpace=wrap;html=1;fontColor=#333333;strokeColor=#666666;" vertex="1" parent="PRWoRMSQXp6HKNYfSj08-56">
          <mxGeometry x="30" width="150" height="30" as="geometry">
            <mxRectangle width="150" height="30" as="alternateBounds" />
          </mxGeometry>
        </mxCell>
        <mxCell id="PRWoRMSQXp6HKNYfSj08-59" value="" style="shape=tableRow;horizontal=0;startSize=0;swimlaneHead=0;swimlaneBody=0;fillColor=none;collapsible=0;dropTarget=0;points=[[0,0.5],[1,0.5]];portConstraint=eastwest;top=0;left=0;right=0;bottom=0;" vertex="1" parent="PRWoRMSQXp6HKNYfSj08-52">
          <mxGeometry y="90" width="180" height="30" as="geometry" />
        </mxCell>
        <mxCell id="PRWoRMSQXp6HKNYfSj08-60" value="" style="shape=partialRectangle;connectable=0;fillColor=#f5f5f5;top=0;left=0;bottom=0;right=0;editable=1;overflow=hidden;whiteSpace=wrap;html=1;fontColor=#333333;strokeColor=#666666;" vertex="1" parent="PRWoRMSQXp6HKNYfSj08-59">
          <mxGeometry width="30" height="30" as="geometry">
            <mxRectangle width="30" height="30" as="alternateBounds" />
          </mxGeometry>
        </mxCell>
        <mxCell id="PRWoRMSQXp6HKNYfSj08-61" value="tokenable_id" style="shape=partialRectangle;connectable=0;fillColor=#f5f5f5;top=0;left=0;bottom=0;right=0;align=left;spacingLeft=6;overflow=hidden;whiteSpace=wrap;html=1;fontColor=#333333;strokeColor=#666666;" vertex="1" parent="PRWoRMSQXp6HKNYfSj08-59">
          <mxGeometry x="30" width="150" height="30" as="geometry">
            <mxRectangle width="150" height="30" as="alternateBounds" />
          </mxGeometry>
        </mxCell>
        <mxCell id="PRWoRMSQXp6HKNYfSj08-62" value="" style="shape=tableRow;horizontal=0;startSize=0;swimlaneHead=0;swimlaneBody=0;fillColor=none;collapsible=0;dropTarget=0;points=[[0,0.5],[1,0.5]];portConstraint=eastwest;top=0;left=0;right=0;bottom=0;" vertex="1" parent="PRWoRMSQXp6HKNYfSj08-52">
          <mxGeometry y="120" width="180" height="30" as="geometry" />
        </mxCell>
        <mxCell id="PRWoRMSQXp6HKNYfSj08-63" value="" style="shape=partialRectangle;connectable=0;fillColor=#f5f5f5;top=0;left=0;bottom=0;right=0;editable=1;overflow=hidden;whiteSpace=wrap;html=1;fontColor=#333333;strokeColor=#666666;" vertex="1" parent="PRWoRMSQXp6HKNYfSj08-62">
          <mxGeometry width="30" height="30" as="geometry">
            <mxRectangle width="30" height="30" as="alternateBounds" />
          </mxGeometry>
        </mxCell>
        <mxCell id="PRWoRMSQXp6HKNYfSj08-64" value="name" style="shape=partialRectangle;connectable=0;fillColor=#f5f5f5;top=0;left=0;bottom=0;right=0;align=left;spacingLeft=6;overflow=hidden;whiteSpace=wrap;html=1;fontColor=#333333;strokeColor=#666666;" vertex="1" parent="PRWoRMSQXp6HKNYfSj08-62">
          <mxGeometry x="30" width="150" height="30" as="geometry">
            <mxRectangle width="150" height="30" as="alternateBounds" />
          </mxGeometry>
        </mxCell>
        <mxCell id="PRWoRMSQXp6HKNYfSj08-65" style="shape=tableRow;horizontal=0;startSize=0;swimlaneHead=0;swimlaneBody=0;fillColor=none;collapsible=0;dropTarget=0;points=[[0,0.5],[1,0.5]];portConstraint=eastwest;top=0;left=0;right=0;bottom=0;" vertex="1" parent="PRWoRMSQXp6HKNYfSj08-52">
          <mxGeometry y="150" width="180" height="30" as="geometry" />
        </mxCell>
        <mxCell id="PRWoRMSQXp6HKNYfSj08-66" style="shape=partialRectangle;connectable=0;fillColor=#f5f5f5;top=0;left=0;bottom=0;right=0;editable=1;overflow=hidden;whiteSpace=wrap;html=1;fontColor=#333333;strokeColor=#666666;" vertex="1" parent="PRWoRMSQXp6HKNYfSj08-65">
          <mxGeometry width="30" height="30" as="geometry">
            <mxRectangle width="30" height="30" as="alternateBounds" />
          </mxGeometry>
        </mxCell>
        <mxCell id="PRWoRMSQXp6HKNYfSj08-67" value="token" style="shape=partialRectangle;connectable=0;fillColor=#f5f5f5;top=0;left=0;bottom=0;right=0;align=left;spacingLeft=6;overflow=hidden;whiteSpace=wrap;html=1;fontColor=#333333;strokeColor=#666666;" vertex="1" parent="PRWoRMSQXp6HKNYfSj08-65">
          <mxGeometry x="30" width="150" height="30" as="geometry">
            <mxRectangle width="150" height="30" as="alternateBounds" />
          </mxGeometry>
        </mxCell>
        <mxCell id="PRWoRMSQXp6HKNYfSj08-68" style="shape=tableRow;horizontal=0;startSize=0;swimlaneHead=0;swimlaneBody=0;fillColor=none;collapsible=0;dropTarget=0;points=[[0,0.5],[1,0.5]];portConstraint=eastwest;top=0;left=0;right=0;bottom=0;" vertex="1" parent="PRWoRMSQXp6HKNYfSj08-52">
          <mxGeometry y="180" width="180" height="30" as="geometry" />
        </mxCell>
        <mxCell id="PRWoRMSQXp6HKNYfSj08-69" style="shape=partialRectangle;connectable=0;fillColor=#f5f5f5;top=0;left=0;bottom=0;right=0;editable=1;overflow=hidden;whiteSpace=wrap;html=1;fontColor=#333333;strokeColor=#666666;" vertex="1" parent="PRWoRMSQXp6HKNYfSj08-68">
          <mxGeometry width="30" height="30" as="geometry">
            <mxRectangle width="30" height="30" as="alternateBounds" />
          </mxGeometry>
        </mxCell>
        <mxCell id="PRWoRMSQXp6HKNYfSj08-70" value="abilities" style="shape=partialRectangle;connectable=0;fillColor=#f5f5f5;top=0;left=0;bottom=0;right=0;align=left;spacingLeft=6;overflow=hidden;whiteSpace=wrap;html=1;fontColor=#333333;strokeColor=#666666;" vertex="1" parent="PRWoRMSQXp6HKNYfSj08-68">
          <mxGeometry x="30" width="150" height="30" as="geometry">
            <mxRectangle width="150" height="30" as="alternateBounds" />
          </mxGeometry>
        </mxCell>
        <mxCell id="PRWoRMSQXp6HKNYfSj08-71" style="shape=tableRow;horizontal=0;startSize=0;swimlaneHead=0;swimlaneBody=0;fillColor=none;collapsible=0;dropTarget=0;points=[[0,0.5],[1,0.5]];portConstraint=eastwest;top=0;left=0;right=0;bottom=0;" vertex="1" parent="PRWoRMSQXp6HKNYfSj08-52">
          <mxGeometry y="210" width="180" height="30" as="geometry" />
        </mxCell>
        <mxCell id="PRWoRMSQXp6HKNYfSj08-72" style="shape=partialRectangle;connectable=0;fillColor=#f5f5f5;top=0;left=0;bottom=0;right=0;editable=1;overflow=hidden;whiteSpace=wrap;html=1;fontColor=#333333;strokeColor=#666666;" vertex="1" parent="PRWoRMSQXp6HKNYfSj08-71">
          <mxGeometry width="30" height="30" as="geometry">
            <mxRectangle width="30" height="30" as="alternateBounds" />
          </mxGeometry>
        </mxCell>
        <mxCell id="PRWoRMSQXp6HKNYfSj08-73" value="last_used_at" style="shape=partialRectangle;connectable=0;fillColor=#f5f5f5;top=0;left=0;bottom=0;right=0;align=left;spacingLeft=6;overflow=hidden;whiteSpace=wrap;html=1;fontColor=#333333;strokeColor=#666666;" vertex="1" parent="PRWoRMSQXp6HKNYfSj08-71">
          <mxGeometry x="30" width="150" height="30" as="geometry">
            <mxRectangle width="150" height="30" as="alternateBounds" />
          </mxGeometry>
        </mxCell>
        <mxCell id="PRWoRMSQXp6HKNYfSj08-74" style="shape=tableRow;horizontal=0;startSize=0;swimlaneHead=0;swimlaneBody=0;fillColor=none;collapsible=0;dropTarget=0;points=[[0,0.5],[1,0.5]];portConstraint=eastwest;top=0;left=0;right=0;bottom=0;" vertex="1" parent="PRWoRMSQXp6HKNYfSj08-52">
          <mxGeometry y="240" width="180" height="30" as="geometry" />
        </mxCell>
        <mxCell id="PRWoRMSQXp6HKNYfSj08-75" style="shape=partialRectangle;connectable=0;fillColor=#f5f5f5;top=0;left=0;bottom=0;right=0;editable=1;overflow=hidden;whiteSpace=wrap;html=1;fontColor=#333333;strokeColor=#666666;" vertex="1" parent="PRWoRMSQXp6HKNYfSj08-74">
          <mxGeometry width="30" height="30" as="geometry">
            <mxRectangle width="30" height="30" as="alternateBounds" />
          </mxGeometry>
        </mxCell>
        <mxCell id="PRWoRMSQXp6HKNYfSj08-76" value="expires_at" style="shape=partialRectangle;connectable=0;fillColor=#f5f5f5;top=0;left=0;bottom=0;right=0;align=left;spacingLeft=6;overflow=hidden;whiteSpace=wrap;html=1;fontColor=#333333;strokeColor=#666666;" vertex="1" parent="PRWoRMSQXp6HKNYfSj08-74">
          <mxGeometry x="30" width="150" height="30" as="geometry">
            <mxRectangle width="150" height="30" as="alternateBounds" />
          </mxGeometry>
        </mxCell>
        <mxCell id="PRWoRMSQXp6HKNYfSj08-79" style="shape=tableRow;horizontal=0;startSize=0;swimlaneHead=0;swimlaneBody=0;fillColor=none;collapsible=0;dropTarget=0;points=[[0,0.5],[1,0.5]];portConstraint=eastwest;top=0;left=0;right=0;bottom=0;" vertex="1" parent="PRWoRMSQXp6HKNYfSj08-52">
          <mxGeometry y="270" width="180" height="30" as="geometry" />
        </mxCell>
        <mxCell id="PRWoRMSQXp6HKNYfSj08-80" style="shape=partialRectangle;connectable=0;fillColor=#f5f5f5;top=0;left=0;bottom=0;right=0;editable=1;overflow=hidden;whiteSpace=wrap;html=1;fontColor=#333333;strokeColor=#666666;" vertex="1" parent="PRWoRMSQXp6HKNYfSj08-79">
          <mxGeometry width="30" height="30" as="geometry">
            <mxRectangle width="30" height="30" as="alternateBounds" />
          </mxGeometry>
        </mxCell>
        <mxCell id="PRWoRMSQXp6HKNYfSj08-81" value="created_at" style="shape=partialRectangle;connectable=0;fillColor=#f5f5f5;top=0;left=0;bottom=0;right=0;align=left;spacingLeft=6;overflow=hidden;whiteSpace=wrap;html=1;fontColor=#333333;strokeColor=#666666;" vertex="1" parent="PRWoRMSQXp6HKNYfSj08-79">
          <mxGeometry x="30" width="150" height="30" as="geometry">
            <mxRectangle width="150" height="30" as="alternateBounds" />
          </mxGeometry>
        </mxCell>
        <mxCell id="PRWoRMSQXp6HKNYfSj08-83" style="shape=tableRow;horizontal=0;startSize=0;swimlaneHead=0;swimlaneBody=0;fillColor=none;collapsible=0;dropTarget=0;points=[[0,0.5],[1,0.5]];portConstraint=eastwest;top=0;left=0;right=0;bottom=0;" vertex="1" parent="PRWoRMSQXp6HKNYfSj08-52">
          <mxGeometry y="300" width="180" height="30" as="geometry" />
        </mxCell>
        <mxCell id="PRWoRMSQXp6HKNYfSj08-84" style="shape=partialRectangle;connectable=0;fillColor=#f5f5f5;top=0;left=0;bottom=0;right=0;editable=1;overflow=hidden;whiteSpace=wrap;html=1;fontColor=#333333;strokeColor=#666666;" vertex="1" parent="PRWoRMSQXp6HKNYfSj08-83">
          <mxGeometry width="30" height="30" as="geometry">
            <mxRectangle width="30" height="30" as="alternateBounds" />
          </mxGeometry>
        </mxCell>
        <mxCell id="PRWoRMSQXp6HKNYfSj08-85" value="updated_at" style="shape=partialRectangle;connectable=0;fillColor=#f5f5f5;top=0;left=0;bottom=0;right=0;align=left;spacingLeft=6;overflow=hidden;whiteSpace=wrap;html=1;fontColor=#333333;strokeColor=#666666;" vertex="1" parent="PRWoRMSQXp6HKNYfSj08-83">
          <mxGeometry x="30" width="150" height="30" as="geometry">
            <mxRectangle width="150" height="30" as="alternateBounds" />
          </mxGeometry>
        </mxCell>
        <mxCell id="PRWoRMSQXp6HKNYfSj08-86" value="" style="edgeStyle=orthogonalEdgeStyle;fontSize=12;html=1;endArrow=ERzeroToMany;startArrow=ERmandOne;rounded=0;" edge="1" parent="1" source="PRWoRMSQXp6HKNYfSj08-37" target="PRWoRMSQXp6HKNYfSj08-59">
          <mxGeometry width="100" height="100" relative="1" as="geometry">
            <mxPoint x="530" y="510" as="sourcePoint" />
            <mxPoint x="630" y="410" as="targetPoint" />
            <Array as="points">
              <mxPoint x="420" y="315" />
              <mxPoint x="420" y="175" />
            </Array>
          </mxGeometry>
        </mxCell>
        <mxCell id="PRWoRMSQXp6HKNYfSj08-87" value="Полиморфная&lt;div&gt;связь&lt;/div&gt;" style="edgeLabel;html=1;align=center;verticalAlign=middle;resizable=0;points=[];" vertex="1" connectable="0" parent="PRWoRMSQXp6HKNYfSj08-86">
          <mxGeometry x="0.1092" relative="1" as="geometry">
            <mxPoint y="10" as="offset" />
          </mxGeometry>
        </mxCell>
        <mxCell id="PRWoRMSQXp6HKNYfSj08-94" value="" style="edgeStyle=orthogonalEdgeStyle;fontSize=12;html=1;endArrow=ERzeroToMany;startArrow=ERmandOne;rounded=0;" edge="1" parent="1" source="PRWoRMSQXp6HKNYfSj08-37" target="PRWoRMSQXp6HKNYfSj08-88">
          <mxGeometry width="100" height="100" relative="1" as="geometry">
            <mxPoint x="370" y="135" as="sourcePoint" />
            <mxPoint x="230" y="195" as="targetPoint" />
            <Array as="points">
              <mxPoint x="650" y="315" />
              <mxPoint x="650" y="205" />
            </Array>
          </mxGeometry>
        </mxCell>
        <mxCell id="PRWoRMSQXp6HKNYfSj08-96" value="" style="edgeStyle=orthogonalEdgeStyle;fontSize=12;html=1;endArrow=ERzeroToMany;startArrow=ERmandOne;rounded=0;" edge="1" parent="1" source="PRWoRMSQXp6HKNYfSj08-37" target="PRWoRMSQXp6HKNYfSj08-91">
          <mxGeometry width="100" height="100" relative="1" as="geometry">
            <mxPoint x="550" y="135" as="sourcePoint" />
            <mxPoint x="650" y="225" as="targetPoint" />
            <Array as="points">
              <mxPoint x="650" y="315" />
              <mxPoint x="650" y="50" />
              <mxPoint x="890" y="50" />
              <mxPoint x="890" y="175" />
            </Array>
          </mxGeometry>
        </mxCell>
        <mxCell id="PRWoRMSQXp6HKNYfSj08-98" value="" style="edgeStyle=entityRelationEdgeStyle;fontSize=12;html=1;endArrow=ERzeroToMany;startArrow=ERmandOne;rounded=0;" edge="1" parent="1" source="PRWoRMSQXp6HKNYfSj08-2" target="PRWoRMSQXp6HKNYfSj08-18">
          <mxGeometry width="100" height="100" relative="1" as="geometry">
            <mxPoint x="620" y="490" as="sourcePoint" />
            <mxPoint x="720" y="390" as="targetPoint" />
          </mxGeometry>
        </mxCell>
        <mxCell id="PRWoRMSQXp6HKNYfSj08-102" value="" style="edgeStyle=orthogonalEdgeStyle;fontSize=12;html=1;endArrow=ERzeroToMany;startArrow=ERmandOne;rounded=0;" edge="1" parent="1" source="PRWoRMSQXp6HKNYfSj08-2" target="PRWoRMSQXp6HKNYfSj08-99">
          <mxGeometry width="100" height="100" relative="1" as="geometry">
            <mxPoint x="620" y="490" as="sourcePoint" />
            <mxPoint x="720" y="390" as="targetPoint" />
            <Array as="points">
              <mxPoint x="870" y="115" />
              <mxPoint x="870" y="205" />
            </Array>
          </mxGeometry>
        </mxCell>
        <mxCell id="PRWoRMSQXp6HKNYfSj08-103" value="Пользователь" style="whiteSpace=wrap;html=1;align=center;" vertex="1" parent="1">
          <mxGeometry x="362.5" y="710" width="150" height="60" as="geometry" />
        </mxCell>
        <mxCell id="PRWoRMSQXp6HKNYfSj08-104" value="Оборудование" style="whiteSpace=wrap;html=1;align=center;" vertex="1" parent="1">
          <mxGeometry x="840" y="626" width="150" height="60" as="geometry" />
        </mxCell>
        <mxCell id="PRWoRMSQXp6HKNYfSj08-105" value="Тип оборудования" style="whiteSpace=wrap;html=1;align=center;" vertex="1" parent="1">
          <mxGeometry x="840" y="786" width="150" height="60" as="geometry" />
        </mxCell>
        <mxCell id="PRWoRMSQXp6HKNYfSj08-109" value="Маска серийного номера" style="ellipse;whiteSpace=wrap;html=1;align=center;" vertex="1" parent="1">
          <mxGeometry x="745" y="866" width="135" height="60" as="geometry" />
        </mxCell>
        <mxCell id="PRWoRMSQXp6HKNYfSj08-110" value="Серийный номер" style="ellipse;whiteSpace=wrap;html=1;align=center;" vertex="1" parent="1">
          <mxGeometry x="750" y="536" width="135" height="60" as="geometry" />
        </mxCell>
        <mxCell id="PRWoRMSQXp6HKNYfSj08-111" value="Название" style="ellipse;whiteSpace=wrap;html=1;align=center;" vertex="1" parent="1">
          <mxGeometry x="960" y="866" width="135" height="60" as="geometry" />
        </mxCell>
        <mxCell id="PRWoRMSQXp6HKNYfSj08-113" value="Примечание" style="ellipse;whiteSpace=wrap;html=1;align=center;dashed=1;" vertex="1" parent="1">
          <mxGeometry x="960" y="530" width="140" height="60" as="geometry" />
        </mxCell>
        <mxCell id="PRWoRMSQXp6HKNYfSj08-115" value="Пароль" style="ellipse;whiteSpace=wrap;html=1;align=center;" vertex="1" parent="1">
          <mxGeometry x="202.5" y="750" width="135" height="60" as="geometry" />
        </mxCell>
        <mxCell id="PRWoRMSQXp6HKNYfSj08-116" value="" style="fontSize=12;html=1;endArrow=none;endFill=0;rounded=0;" edge="1" parent="1" source="PRWoRMSQXp6HKNYfSj08-132" target="PRWoRMSQXp6HKNYfSj08-103">
          <mxGeometry width="100" height="100" relative="1" as="geometry">
            <mxPoint x="412.40598518412185" y="709.8244581194128" as="sourcePoint" />
            <mxPoint x="895" y="556" as="targetPoint" />
          </mxGeometry>
        </mxCell>
        <mxCell id="PRWoRMSQXp6HKNYfSj08-117" value="" style="fontSize=12;html=1;endArrow=none;endFill=0;rounded=0;" edge="1" parent="1" source="PRWoRMSQXp6HKNYfSj08-115" target="PRWoRMSQXp6HKNYfSj08-103">
          <mxGeometry width="100" height="100" relative="1" as="geometry">
            <mxPoint x="371" y="777" as="sourcePoint" />
            <mxPoint x="411" y="716" as="targetPoint" />
          </mxGeometry>
        </mxCell>
        <mxCell id="PRWoRMSQXp6HKNYfSj08-118" value="" style="fontSize=12;html=1;endArrow=none;endFill=0;rounded=0;" edge="1" parent="1" source="PRWoRMSQXp6HKNYfSj08-109" target="PRWoRMSQXp6HKNYfSj08-105">
          <mxGeometry width="100" height="100" relative="1" as="geometry">
            <mxPoint x="496" y="818" as="sourcePoint" />
            <mxPoint x="448" y="756" as="targetPoint" />
          </mxGeometry>
        </mxCell>
        <mxCell id="PRWoRMSQXp6HKNYfSj08-119" value="" style="fontSize=12;html=1;endArrow=none;endFill=0;rounded=0;" edge="1" parent="1" source="PRWoRMSQXp6HKNYfSj08-111" target="PRWoRMSQXp6HKNYfSj08-105">
          <mxGeometry width="100" height="100" relative="1" as="geometry">
            <mxPoint x="768" y="829" as="sourcePoint" />
            <mxPoint x="830" y="776" as="targetPoint" />
          </mxGeometry>
        </mxCell>
        <mxCell id="PRWoRMSQXp6HKNYfSj08-120" value="" style="fontSize=12;html=1;endArrow=none;endFill=0;rounded=0;" edge="1" parent="1" source="PRWoRMSQXp6HKNYfSj08-110" target="PRWoRMSQXp6HKNYfSj08-104">
          <mxGeometry width="100" height="100" relative="1" as="geometry">
            <mxPoint x="794.5" y="650" as="sourcePoint" />
            <mxPoint x="777.5" y="600" as="targetPoint" />
          </mxGeometry>
        </mxCell>
        <mxCell id="PRWoRMSQXp6HKNYfSj08-121" value="" style="fontSize=12;html=1;endArrow=none;endFill=0;rounded=0;" edge="1" parent="1" source="PRWoRMSQXp6HKNYfSj08-113" target="PRWoRMSQXp6HKNYfSj08-104">
          <mxGeometry width="100" height="100" relative="1" as="geometry">
            <mxPoint x="1041.5" y="652" as="sourcePoint" />
            <mxPoint x="1065.5" y="620" as="targetPoint" />
          </mxGeometry>
        </mxCell>
        <mxCell id="PRWoRMSQXp6HKNYfSj08-122" value="Создает" style="shape=rhombus;perimeter=rhombusPerimeter;whiteSpace=wrap;html=1;align=center;" vertex="1" parent="1">
          <mxGeometry x="595" y="750" width="147.5" height="60" as="geometry" />
        </mxCell>
        <mxCell id="PRWoRMSQXp6HKNYfSj08-123" value="Создает" style="shape=rhombus;perimeter=rhombusPerimeter;whiteSpace=wrap;html=1;align=center;" vertex="1" parent="1">
          <mxGeometry x="595" y="670" width="150" height="60" as="geometry" />
        </mxCell>
        <mxCell id="PRWoRMSQXp6HKNYfSj08-124" value="Принадлежит типу" style="shape=rhombus;perimeter=rhombusPerimeter;whiteSpace=wrap;html=1;align=center;" vertex="1" parent="1">
          <mxGeometry x="840" y="706" width="150" height="60" as="geometry" />
        </mxCell>
        <mxCell id="PRWoRMSQXp6HKNYfSj08-125" value="" style="fontSize=12;html=1;endArrow=none;startArrow=ERmandOne;rounded=0;endFill=0;" edge="1" parent="1" source="PRWoRMSQXp6HKNYfSj08-103" target="PRWoRMSQXp6HKNYfSj08-123">
          <mxGeometry width="100" height="100" relative="1" as="geometry">
            <mxPoint x="1045" y="856" as="sourcePoint" />
            <mxPoint x="1145" y="756" as="targetPoint" />
          </mxGeometry>
        </mxCell>
        <mxCell id="PRWoRMSQXp6HKNYfSj08-126" value="" style="fontSize=12;html=1;endArrow=none;startArrow=ERmandOne;rounded=0;endFill=0;" edge="1" parent="1" source="PRWoRMSQXp6HKNYfSj08-103" target="PRWoRMSQXp6HKNYfSj08-122">
          <mxGeometry width="100" height="100" relative="1" as="geometry">
            <mxPoint x="581" y="716" as="sourcePoint" />
            <mxPoint x="702" y="644" as="targetPoint" />
          </mxGeometry>
        </mxCell>
        <mxCell id="PRWoRMSQXp6HKNYfSj08-128" value="" style="fontSize=12;html=1;endArrow=ERzeroToMany;startArrow=none;rounded=0;startFill=0;" edge="1" parent="1" source="PRWoRMSQXp6HKNYfSj08-123" target="PRWoRMSQXp6HKNYfSj08-104">
          <mxGeometry width="100" height="100" relative="1" as="geometry">
            <mxPoint x="732.5" y="680" as="sourcePoint" />
            <mxPoint x="832.5" y="580" as="targetPoint" />
          </mxGeometry>
        </mxCell>
        <mxCell id="PRWoRMSQXp6HKNYfSj08-129" value="" style="fontSize=12;html=1;endArrow=ERzeroToMany;startArrow=none;rounded=0;startFill=0;" edge="1" parent="1" source="PRWoRMSQXp6HKNYfSj08-122" target="PRWoRMSQXp6HKNYfSj08-105">
          <mxGeometry width="100" height="100" relative="1" as="geometry">
            <mxPoint x="776" y="696" as="sourcePoint" />
            <mxPoint x="850" y="681" as="targetPoint" />
          </mxGeometry>
        </mxCell>
        <mxCell id="PRWoRMSQXp6HKNYfSj08-130" value="" style="fontSize=12;html=1;endArrow=ERzeroToMany;startArrow=none;rounded=0;startFill=0;" edge="1" parent="1" source="PRWoRMSQXp6HKNYfSj08-124" target="PRWoRMSQXp6HKNYfSj08-104">
          <mxGeometry width="100" height="100" relative="1" as="geometry">
            <mxPoint x="671.5" y="660" as="sourcePoint" />
            <mxPoint x="747.5" y="675" as="targetPoint" />
          </mxGeometry>
        </mxCell>
        <mxCell id="PRWoRMSQXp6HKNYfSj08-131" value="" style="fontSize=12;html=1;endArrow=none;startArrow=ERmandOne;rounded=0;endFill=0;" edge="1" parent="1" source="PRWoRMSQXp6HKNYfSj08-105" target="PRWoRMSQXp6HKNYfSj08-124">
          <mxGeometry width="100" height="100" relative="1" as="geometry">
            <mxPoint x="605" y="731" as="sourcePoint" />
            <mxPoint x="677" y="716" as="targetPoint" />
          </mxGeometry>
        </mxCell>
        <mxCell id="PRWoRMSQXp6HKNYfSj08-132" value="Адрес электронной почты" style="ellipse;whiteSpace=wrap;html=1;align=center;fontStyle=4;" vertex="1" parent="1">
          <mxGeometry x="200" y="660" width="140" height="60" as="geometry" />
        </mxCell>
        <mxCell id="PRWoRMSQXp6HKNYfSj08-135" value="&lt;b&gt;&lt;font style=&quot;font-size: 23px;&quot;&gt;ER&lt;/font&gt;&lt;/b&gt;&lt;div&gt;&lt;b&gt;&lt;font style=&quot;font-size: 23px;&quot;&gt;диаграмма&lt;/font&gt;&lt;/b&gt;&lt;/div&gt;" style="text;html=1;align=center;verticalAlign=middle;resizable=0;points=[];autosize=1;strokeColor=none;fillColor=none;" vertex="1" parent="1">
          <mxGeometry y="490" width="150" height="70" as="geometry" />
        </mxCell>
        <mxCell id="PRWoRMSQXp6HKNYfSj08-136" value="&lt;b&gt;&lt;font style=&quot;font-size: 23px;&quot;&gt;Структура&lt;/font&gt;&lt;/b&gt;&lt;div&gt;&lt;b&gt;&lt;font style=&quot;font-size: 23px;&quot;&gt;базы данных&lt;/font&gt;&lt;/b&gt;&lt;/div&gt;" style="text;html=1;align=center;verticalAlign=middle;resizable=0;points=[];autosize=1;strokeColor=none;fillColor=none;" vertex="1" parent="1">
          <mxGeometry width="180" height="70" as="geometry" />
        </mxCell>
      </root>
    </mxGraphModel>
  </diagram>
</mxfile>
